<svg width="968.5150390624999px" height="315.20498046874997px" xmlns="http://www.w3.org/2000/svg" viewBox="-234.25751953124995 -82.60249023437498 968.5150390624999 315.20498046874997" style="background: rgb(253, 253, 253);" preserveAspectRatio="xMidYMid"><defs><linearGradient id="editing-outline-gradient" x1="0.7756373558169991" x2="0.22436264418300095" y1="-0.4612616959383189" y2="1.461261695938319"><stop offset="0" stop-color="#2dce89"></stop><stop offset="1" stop-color="#2dce89"></stop></linearGradient><filter id="editing-outline" x="-100%" y="-100%" width="300%" height="300%"><feMorphology in="SourceGraphic" operator="dilate" radius="8" result="outline"></feMorphology><feComposite operator="out" in="outline" in2="SourceAlpha"></feComposite></filter></defs><g filter="url(#editing-outline)"><g transform="translate(-100.5200023651123, 121.71500015258789)"><path d="M84.73-41.81L84.73-13.66L84.73-13.66Q84.73-9.38 83.21-7.31L83.21-7.31L83.21-7.31Q81.70-5.24 78.38-3.31L78.38-3.31L78.38-3.31Q76.45-2.21 73.55-1.17L73.55-1.17L73.55-1.17Q70.66-0.14 67.21 0.62L67.21 0.62L67.21 0.62Q63.76 1.38 59.96 1.79L59.96 1.79L59.96 1.79Q56.17 2.21 52.44 2.21L52.44 2.21L52.44 2.21Q42.50 2.21 33.81-0.48L33.81-0.48L33.81-0.48Q25.12-3.17 18.70-8.63L18.70-8.63L18.70-8.63Q12.28-14.08 8.56-22.22L8.56-22.22L8.56-22.22Q4.83-30.36 4.83-41.12L4.83-41.12L4.83-41.12Q4.83-52.44 8.90-60.86L8.90-60.86L8.90-60.86Q12.97-69.28 19.67-74.87L19.67-74.87L19.67-74.87Q26.36-80.45 34.98-83.21L34.98-83.21L34.98-83.21Q43.61-85.97 52.72-85.97L52.72-85.97L52.72-85.97Q65.83-85.97 73.48-81.77L73.48-81.77L73.48-81.77Q81.14-77.56 81.14-70.79L81.14-70.79L81.14-70.79Q81.14-67.21 79.35-64.58L79.35-64.58L79.35-64.58Q77.56-61.96 75.21-60.44L75.21-60.44L75.21-60.44Q71.76-62.51 66.59-64.52L66.59-64.52L66.59-64.52Q61.41-66.52 54.92-66.52L54.92-66.52L54.92-66.52Q43.33-66.52 36.50-59.89L36.50-59.89L36.50-59.89Q29.67-53.27 29.67-41.54L29.67-41.54L29.67-41.54Q29.67-35.19 31.53-30.57L31.53-30.57L31.53-30.57Q33.40-25.94 36.57-22.98L36.57-22.98L36.57-22.98Q39.74-20.01 43.88-18.56L43.88-18.56L43.88-18.56Q48.02-17.11 52.72-17.11L52.72-17.11L52.72-17.11Q55.75-17.11 58.10-17.66L58.10-17.66L58.10-17.66Q60.44-18.22 61.69-18.91L61.69-18.91L61.69-31.88L46.92-31.88L46.92-31.88Q46.09-33.40 45.33-35.88L45.33-35.88L45.33-35.88Q44.57-38.36 44.57-41.12L44.57-41.12L44.57-41.12Q44.57-46.09 46.85-48.30L46.85-48.30L46.85-48.30Q49.13-50.51 52.72-50.51L52.72-50.51L76.04-50.51L76.04-50.51Q80.18-50.51 82.46-48.23L82.46-48.23L82.46-48.23Q84.73-45.95 84.73-41.81L84.73-41.81ZM122.27-47.20L122.27-0.14L122.27-0.14Q120.89 0.28 117.92 0.69L117.92 0.69L117.92 0.69Q114.95 1.10 111.78 1.10L111.78 1.10L111.78 1.10Q108.74 1.10 106.33 0.69L106.33 0.69L106.33 0.69Q103.91 0.28 102.26-0.97L102.26-0.97L102.26-0.97Q100.60-2.21 99.71-4.35L99.71-4.35L99.71-4.35Q98.81-6.49 98.81-9.94L98.81-9.94L98.81-51.34L98.81-51.34Q98.81-54.51 99.98-56.79L99.98-56.79L99.98-56.79Q101.15-59.06 103.36-60.86L103.36-60.86L103.36-60.86Q105.57-62.65 108.81-64.10L108.81-64.10L108.81-64.10Q112.06-65.55 115.78-66.65L115.78-66.65L115.78-66.65Q119.51-67.76 123.51-68.38L123.51-68.38L123.51-68.38Q127.51-69 131.51-69L131.51-69L131.51-69Q138.14-69 142.00-66.45L142.00-66.45L142.00-66.45Q145.87-63.89 145.87-58.10L145.87-58.10L145.87-58.10Q145.87-56.17 145.31-54.30L145.31-54.30L145.31-54.30Q144.76-52.44 143.93-50.92L143.93-50.92L143.93-50.92Q141.04-50.92 138-50.65L138-50.65L138-50.65Q134.96-50.37 132.07-49.82L132.07-49.82L132.07-49.82Q129.17-49.27 126.62-48.65L126.62-48.65L126.62-48.65Q124.06-48.02 122.27-47.20L122.27-47.20ZM190.99 2.21L190.99 2.21L190.99 2.21Q182.85 2.21 175.88-0.07L175.88-0.07L175.88-0.07Q168.91-2.35 163.74-6.90L163.74-6.90L163.74-6.90Q158.56-11.45 155.60-18.35L155.60-18.35L155.60-18.35Q152.63-25.25 152.63-34.50L152.63-34.50L152.63-34.50Q152.63-43.61 155.60-50.16L155.60-50.16L155.60-50.16Q158.56-56.72 163.39-60.93L163.39-60.93L163.39-60.93Q168.22-65.14 174.43-67.14L174.43-67.14L174.43-67.14Q180.64-69.14 187.13-69.14L187.13-69.14L187.13-69.14Q194.44-69.14 200.45-66.93L200.45-66.93L200.45-66.93Q206.45-64.72 210.80-60.86L210.80-60.86L210.80-60.86Q215.14-56.99 217.56-51.61L217.56-51.61L217.56-51.61Q219.97-46.23 219.97-39.88L219.97-39.88L219.97-39.88Q219.97-35.19 217.35-32.71L217.35-32.71L217.35-32.71Q214.73-30.22 210.04-29.53L210.04-29.53L175.95-24.43L175.95-24.43Q177.47-19.87 182.16-17.60L182.16-17.60L182.16-17.60Q186.85-15.32 192.92-15.32L192.92-15.32L192.92-15.32Q198.58-15.32 203.62-16.77L203.62-16.77L203.62-16.77Q208.66-18.22 211.83-20.15L211.83-20.15L211.83-20.15Q214.04-18.77 215.56-16.28L215.56-16.28L215.56-16.28Q217.07-13.80 217.07-11.04L217.07-11.04L217.07-11.04Q217.07-4.83 211.28-1.79L211.28-1.79L211.28-1.79Q206.86 0.55 201.34 1.38L201.34 1.38L201.34 1.38Q195.82 2.21 190.99 2.21ZM187.13-52.03L187.13-52.03L187.13-52.03Q183.82-52.03 181.40-50.92L181.40-50.92L181.40-50.92Q178.99-49.82 177.47-48.09L177.47-48.09L177.47-48.09Q175.95-46.37 175.19-44.23L175.19-44.23L175.19-44.23Q174.43-42.09 174.29-39.88L174.29-39.88L197.89-43.75L197.89-43.75Q197.48-46.51 194.86-49.27L194.86-49.27L194.86-49.27Q192.23-52.03 187.13-52.03ZM266.75 2.21L266.75 2.21L266.75 2.21Q258.61 2.21 251.64-0.07L251.64-0.07L251.64-0.07Q244.67-2.35 239.50-6.90L239.50-6.90L239.50-6.90Q234.32-11.45 231.36-18.35L231.36-18.35L231.36-18.35Q228.39-25.25 228.39-34.50L228.39-34.50L228.39-34.50Q228.39-43.61 231.36-50.16L231.36-50.16L231.36-50.16Q234.32-56.72 239.15-60.93L239.15-60.93L239.15-60.93Q243.98-65.14 250.19-67.14L250.19-67.14L250.19-67.14Q256.40-69.14 262.89-69.14L262.89-69.14L262.89-69.14Q270.20-69.14 276.21-66.93L276.21-66.93L276.21-66.93Q282.21-64.72 286.56-60.86L286.56-60.86L286.56-60.86Q290.90-56.99 293.32-51.61L293.32-51.61L293.32-51.61Q295.73-46.23 295.73-39.88L295.73-39.88L295.73-39.88Q295.73-35.19 293.11-32.71L293.11-32.71L293.11-32.71Q290.49-30.22 285.80-29.53L285.80-29.53L251.71-24.43L251.71-24.43Q253.23-19.87 257.92-17.60L257.92-17.60L257.92-17.60Q262.61-15.32 268.69-15.32L268.69-15.32L268.69-15.32Q274.34-15.32 279.38-16.77L279.38-16.77L279.38-16.77Q284.42-18.22 287.59-20.15L287.59-20.15L287.59-20.15Q289.80-18.77 291.32-16.28L291.32-16.28L291.32-16.28Q292.84-13.80 292.84-11.04L292.84-11.04L292.84-11.04Q292.84-4.83 287.04-1.79L287.04-1.79L287.04-1.79Q282.62 0.55 277.10 1.38L277.10 1.38L277.10 1.38Q271.58 2.21 266.75 2.21ZM262.89-52.03L262.89-52.03L262.89-52.03Q259.58-52.03 257.16-50.92L257.16-50.92L257.16-50.92Q254.75-49.82 253.23-48.09L253.23-48.09L253.23-48.09Q251.71-46.37 250.95-44.23L250.95-44.23L250.95-44.23Q250.19-42.09 250.06-39.88L250.06-39.88L273.65-43.75L273.65-43.75Q273.24-46.51 270.62-49.27L270.62-49.27L270.62-49.27Q268.00-52.03 262.89-52.03ZM349.55-9.94L349.55-42.50L349.55-42.50Q349.55-46.78 347.14-48.78L347.14-48.78L347.14-48.78Q344.72-50.78 340.58-50.78L340.58-50.78L340.58-50.78Q337.82-50.78 335.13-50.09L335.13-50.09L335.13-50.09Q332.44-49.40 330.51-48.02L330.51-48.02L330.51-0.14L330.51-0.14Q329.13 0.28 326.16 0.69L326.16 0.69L326.16 0.69Q323.20 1.10 320.02 1.10L320.02 1.10L320.02 1.10Q316.99 1.10 314.57 0.69L314.57 0.69L314.57 0.69Q312.16 0.28 310.50-0.97L310.50-0.97L310.50-0.97Q308.84-2.21 307.95-4.35L307.95-4.35L307.95-4.35Q307.05-6.49 307.05-9.94L307.05-9.94L307.05-51.34L307.05-51.34Q307.05-55.06 308.64-57.41L308.64-57.41L308.64-57.41Q310.22-59.75 312.98-61.69L312.98-61.69L312.98-61.69Q317.68-65.00 324.78-67.07L324.78-67.07L324.78-67.07Q331.89-69.14 340.58-69.14L340.58-69.14L340.58-69.14Q356.18-69.14 364.60-62.31L364.60-62.31L364.60-62.31Q373.01-55.48 373.01-43.33L373.01-43.33L373.01-0.14L373.01-0.14Q371.63 0.28 368.67 0.69L368.67 0.69L368.67 0.69Q365.70 1.10 362.53 1.10L362.53 1.10L362.53 1.10Q359.49 1.10 357.08 0.69L357.08 0.69L357.08 0.69Q354.66 0.28 353.00-0.97L353.00-0.97L353.00-0.97Q351.35-2.21 350.45-4.35L350.45-4.35L350.45-4.35Q349.55-6.49 349.55-9.94L349.55-9.94ZM387.78-16.28L387.78-89.84L387.78-89.84Q389.16-90.25 392.20-90.74L392.20-90.74L392.20-90.74Q395.23-91.22 398.41-91.22L398.41-91.22L398.41-91.22Q401.44-91.22 403.86-90.80L403.86-90.80L403.86-90.80Q406.27-90.39 407.93-89.15L407.93-89.15L407.93-89.15Q409.58-87.91 410.41-85.77L410.41-85.77L410.41-85.77Q411.24-83.63 411.24-80.18L411.24-80.18L411.24-66.65L411.24-66.65Q414.69-68.03 417.80-68.59L417.80-68.59L417.80-68.59Q420.90-69.14 424.63-69.14L424.63-69.14L424.63-69.14Q431.25-69.14 437.18-66.79L437.18-66.79L437.18-66.79Q443.12-64.45 447.67-59.96L447.67-59.96L447.67-59.96Q452.23-55.48 454.85-48.85L454.85-48.85L454.85-48.85Q457.47-42.23 457.47-33.53L457.47-33.53L457.47-33.53Q457.47-24.56 454.78-17.87L454.78-17.87L454.78-17.87Q452.09-11.18 447.26-6.76L447.26-6.76L447.26-6.76Q442.43-2.35 435.46-0.07L435.46-0.07L435.46-0.07Q428.49 2.21 420.07 2.21L420.07 2.21L420.07 2.21Q410.96 2.21 404.62 0.07L404.62 0.07L404.62 0.07Q398.27-2.07 393.85-5.24L393.85-5.24L393.85-5.24Q387.78-9.52 387.78-16.28L387.78-16.28ZM420.07-16.28L420.07-16.28L420.07-16.28Q426.42-16.28 429.94-20.63L429.94-20.63L429.94-20.63Q433.46-24.98 433.46-33.53L433.46-33.53L433.46-33.53Q433.46-42.23 429.87-46.51L429.87-46.51L429.87-46.51Q426.28-50.78 420.21-50.78L420.21-50.78L420.21-50.78Q417.45-50.78 415.45-50.23L415.45-50.23L415.45-50.23Q413.45-49.68 411.10-48.58L411.10-48.58L411.10-18.49L411.10-18.49Q412.62-17.53 414.76-16.91L414.76-16.91L414.76-16.91Q416.90-16.28 420.07-16.28ZM538.34-33.53L538.34-33.53L538.34-33.53Q538.34-24.98 535.72-18.29L535.72-18.29L535.72-18.29Q533.09-11.59 528.33-7.04L528.33-7.04L528.33-7.04Q523.57-2.48 516.95-0.14L516.95-0.14L516.95-0.14Q510.32 2.21 502.18 2.21L502.18 2.21L502.18 2.21Q494.04 2.21 487.42-0.28L487.42-0.28L487.42-0.28Q480.79-2.76 476.03-7.38L476.03-7.38L476.03-7.38Q471.27-12.01 468.65-18.63L468.65-18.63L468.65-18.63Q466.03-25.25 466.03-33.53L466.03-33.53L466.03-33.53Q466.03-41.68 468.65-48.30L468.65-48.30L468.65-48.30Q471.27-54.92 476.03-59.55L476.03-59.55L476.03-59.55Q480.79-64.17 487.42-66.65L487.42-66.65L487.42-66.65Q494.04-69.14 502.18-69.14L502.18-69.14L502.18-69.14Q510.32-69.14 516.95-66.59L516.95-66.59L516.95-66.59Q523.57-64.03 528.33-59.41L528.33-59.41L528.33-59.41Q533.09-54.79 535.72-48.16L535.72-48.16L535.72-48.16Q538.34-41.54 538.34-33.53ZM490.04-33.53L490.04-33.53L490.04-33.53Q490.04-25.12 493.28-20.63L493.28-20.63L493.28-20.63Q496.52-16.15 502.32-16.15L502.32-16.15L502.32-16.15Q508.12-16.15 511.22-20.70L511.22-20.70L511.22-20.70Q514.33-25.25 514.33-33.53L514.33-33.53L514.33-33.53Q514.33-41.81 511.15-46.30L511.15-46.30L511.15-46.30Q507.98-50.78 502.18-50.78L502.18-50.78L502.18-50.78Q496.39-50.78 493.21-46.30L493.21-46.30L493.21-46.30Q490.04-41.81 490.04-33.53ZM619.21-33.53L619.21-33.53L619.21-33.53Q619.21-24.98 616.58-18.29L616.58-18.29L616.58-18.29Q613.96-11.59 609.20-7.04L609.20-7.04L609.20-7.04Q604.44-2.48 597.82-0.14L597.82-0.14L597.82-0.14Q591.19 2.21 583.05 2.21L583.05 2.21L583.05 2.21Q574.91 2.21 568.28-0.28L568.28-0.28L568.28-0.28Q561.66-2.76 556.90-7.38L556.90-7.38L556.90-7.38Q552.14-12.01 549.52-18.63L549.52-18.63L549.52-18.63Q546.89-25.25 546.89-33.53L546.89-33.53L546.89-33.53Q546.89-41.68 549.52-48.30L549.52-48.30L549.52-48.30Q552.14-54.92 556.90-59.55L556.90-59.55L556.90-59.55Q561.66-64.17 568.28-66.65L568.28-66.65L568.28-66.65Q574.91-69.14 583.05-69.14L583.05-69.14L583.05-69.14Q591.19-69.14 597.82-66.59L597.82-66.59L597.82-66.59Q604.44-64.03 609.20-59.41L609.20-59.41L609.20-59.41Q613.96-54.79 616.58-48.16L616.58-48.16L616.58-48.16Q619.21-41.54 619.21-33.53ZM570.91-33.53L570.91-33.53L570.91-33.53Q570.91-25.12 574.15-20.63L574.15-20.63L574.15-20.63Q577.39-16.15 583.19-16.15L583.19-16.15L583.19-16.15Q588.98-16.15 592.09-20.70L592.09-20.70L592.09-20.70Q595.19-25.25 595.19-33.53L595.19-33.53L595.19-33.53Q595.19-41.81 592.02-46.30L592.02-46.30L592.02-46.30Q588.85-50.78 583.05-50.78L583.05-50.78L583.05-50.78Q577.25-50.78 574.08-46.30L574.08-46.30L574.08-46.30Q570.91-41.81 570.91-33.53ZM674.13-34.22L696.21-12.14L696.21-12.14Q695.52-5.66 692.42-2.21L692.42-2.21L692.42-2.21Q689.31 1.24 683.38 1.24L683.38 1.24L683.38 1.24Q678.96 1.24 675.51-0.90L675.51-0.90L675.51-0.90Q672.06-3.04 668.06-8.14L668.06-8.14L654.40-25.25L654.40-0.14L654.40-0.14Q652.88 0.14 649.91 0.62L649.91 0.62L649.91 0.62Q646.94 1.10 643.91 1.10L643.91 1.10L643.91 1.10Q640.87 1.10 638.46 0.69L638.46 0.69L638.46 0.69Q636.04 0.28 634.39-0.97L634.39-0.97L634.39-0.97Q632.73-2.21 631.83-4.35L631.83-4.35L631.83-4.35Q630.94-6.49 630.94-9.94L630.94-9.94L630.94-89.84L630.94-89.84Q632.45-90.25 635.42-90.74L635.42-90.74L635.42-90.74Q638.39-91.22 641.42-91.22L641.42-91.22L641.42-91.22Q644.46-91.22 646.88-90.80L646.88-90.80L646.88-90.80Q649.29-90.39 650.95-89.15L650.95-89.15L650.95-89.15Q652.60-87.91 653.50-85.77L653.50-85.77L653.50-85.77Q654.40-83.63 654.40-80.18L654.40-80.18L654.40-43.75L678.13-68.03L678.13-68.03Q685.31-68.03 689.66-64.86L689.66-64.86L689.66-64.86Q694.00-61.69 694.00-56.86L694.00-56.86L694.00-56.86Q694.00-54.79 693.31-53.06L693.31-53.06L693.31-53.06Q692.62-51.34 691.17-49.54L691.17-49.54L691.17-49.54Q689.72-47.75 687.45-45.75L687.45-45.75L687.45-45.75Q685.17-43.75 682.13-41.12L682.13-41.12L674.13-34.22Z" fill="url(#editing-outline-gradient)"></path></g></g><style>text {
  font-size: 64px;
  font-family: Arial Black;
  dominant-baseline: central;
  text-anchor: middle;
}</style></svg>